<svg xmlns="http://www.w3.org/2000/svg" width="32" height="32" viewBox="0 0 32 32">
  <!-- Left Ear -->
  <path d="M11 14 L2 2 C2 2, 5 6, 8 11 Z" fill="#FFDE00" stroke="#1A202C" stroke-width="1.2" stroke-linejoin="round" />
  <path d="M2 2 L4.5 5.5 C4.5 5.5, 3.5 4.5, 3 4 Z" fill="#1A202C" />
  <!-- Right Ear -->
  <path d="M21 14 L29 3 C29 3, 26 7, 23 11 Z" fill="#FFDE00" stroke="#1A202C" stroke-width="1.2" stroke-linejoin="round" />
  <path d="M29 3 L26.5 6.5 C26.5 6.5, 27.5 5.5, 28 5 Z" fill="#1A202C" />
  <!-- Head -->
  <circle cx="16" cy="21" r="8" fill="#FFDE00" stroke="#1A202C" stroke-width="1.2" />
  <!-- Cheeks -->
  <circle cx="10" cy="23" r="1.8" fill="#E53E3E" />
  <circle cx="22" cy="23" r="1.8" fill="#E53E3E" />
  <!-- Eyes -->
  <circle cx="13" cy="19" r="1.2" fill="#1A202C" />
  <circle cx="12.5" cy="18.5" r="0.4" fill="#FFFFFF" />
  <circle cx="19" cy="19" r="1.2" fill="#1A202C" />
  <circle cx="18.5" cy="18.5" r="0.4" fill="#FFFFFF" />
  <!-- Nose -->
  <polygon points="16,20.5 15.3,20 16.7,20" fill="#1A202C" />
  <!-- Mouth -->
  <path d="M14.5,22 C15,22.5 15.5,22.5 16,22 C16.5,22.5 17,22.5 17.5,22" stroke="#1A202C" stroke-width="0.8" fill="none" stroke-linecap="round" />
</svg>
