<svg xmlns="http://www.w3.org/2000/svg" width="32" height="32" viewBox="0 0 32 32">
  <!-- Left Ear -->
  <path d="M11 14 L2 2 C2 2, 5 6, 8 11 Z" fill="#FFDE00" stroke="#1A202C" stroke-width="1.2" stroke-linejoin="round" />
  <path d="M2 2 L4.5 5.5 C4.5 5.5, 3.5 4.5, 3 4 Z" fill="#1A202C" />
  <!-- Right Ear -->
  <path d="M21 14 L29 3 C29 3, 26 7, 23 11 Z" fill="#FFDE00" stroke="#1A202C" stroke-width="1.2" stroke-linejoin="round" />
  <path d="M29 3 L26.5 6.5 C26.5 6.5, 27.5 5.5, 28 5 Z" fill="#1A202C" />
  <!-- Head -->
  <circle cx="16" cy="21" r="8" fill="#FFDE00" stroke="#1A202C" stroke-width="1.2" />
  <!-- Cheeks -->
  <circle cx="10" cy="23" r="1.8" fill="#E53E3E" />
  <circle cx="22" cy="23" r="1.8" fill="#E53E3E" />
  <!-- Happy Eyes (^ ^) -->
  <path d="M11.5,19.5 C12,18.5 13.5,18.5 14,19.5" stroke="#1A202C" stroke-width="1.2" fill="none" stroke-linecap="round" />
  <path d="M18,19.5 C18.5,18.5 20,18.5 20.5,19.5" stroke="#1A202C" stroke-width="1.2" fill="none" stroke-linecap="round" />
  <!-- Nose -->
  <polygon points="16,20.5 15.3,20 16.7,20" fill="#1A202C" />
  <!-- Open Mouth -->
  <path d="M14.5,21.5 C14.5,24 17.5,24 17.5,21.5 Z" fill="#E53E3E" stroke="#1A202C" stroke-width="0.8" stroke-linejoin="round" />
</svg>
