<svg xmlns="http://www.w3.org/2000/svg" width="32" height="32" viewBox="0 0 32 32">
  <g transform="rotate(-45 16 16)">
    <!-- Glow & Sparkle in the open gap -->
    <circle cx="16" cy="16" r="5" fill="#818CF8" opacity="0.7" />
    <polygon points="16,11 17.5,14.5 21,16 17.5,17.5 16,21 14.5,17.5 11,16 14.5,14.5" fill="#FBBF24" />
    
    <!-- Bottom Half (White) translated down-right (dy = 3) -->
    <g transform="translate(0, 3)">
      <path d="M6,16 A10,10 0 0,0 26,16 Z" fill="#FFFFFF" stroke="#1A202C" stroke-width="1.5" />
      <path d="M12.5,16 L19.5,16 A3.5,3.5 0 0,1 12.5,16 Z" fill="#FFFFFF" stroke="#1A202C" stroke-width="1.5" />
    </g>
    
    <!-- Top Half (Red) translated up-left (dy = -3) -->
    <g transform="translate(0, -3)">
      <path d="M6,16 A10,10 0 0,1 26,16 Z" fill="#EF4444" stroke="#1A202C" stroke-width="1.5" />
      <path d="M12.5,16 L19.5,16 A3.5,3.5 0 0,0 12.5,16 Z" fill="#FFFFFF" stroke="#1A202C" stroke-width="1.5" />
      <path d="M8.5,12.5 A7.5,7.5 0 0,1 14,8.5" fill="none" stroke="#FFFFFF" stroke-width="1" stroke-linecap="round" opacity="0.6" />
    </g>
  </g>
</svg>
